<svg xmlns="http://www.w3.org/2000/svg" xmlns:xlink="http://www.w3.org/1999/xlink" width="1000" zoomAndPan="magnify" viewBox="0 0 750 149.999998" height="200" preserveAspectRatio="xMidYMid meet" version="1.0"><defs><g/></defs><g fill="#e13022" fill-opacity="1"><g transform="translate(7.533614, 149.108391)"><g><path d="M 35.480469 -106.441406 L 75.015625 -106.441406 C 84.546875 -106.441406 92.859375 -114.753906 92.859375 -124.488281 C 92.859375 -134.015625 84.953125 -141.921875 75.015625 -141.921875 L 29.804688 -141.921875 C 13.382812 -141.921875 0 -128.542969 0 -111.917969 L 0 -16.421875 C 0 6.691406 35.480469 6.691406 35.480469 -16.421875 C 35.480469 -28.382812 35.480469 -35.480469 35.480469 -47.441406 L 66.90625 -47.441406 C 76.839844 -47.441406 84.953125 -55.753906 84.953125 -65.285156 C 84.953125 -75.015625 76.839844 -82.921875 67.3125 -82.921875 C 53.929688 -82.921875 48.863281 -82.921875 35.480469 -82.921875 Z M 35.480469 -106.441406 "/></g></g></g><g fill="#e13022" fill-opacity="1"><g transform="translate(105.450322, 149.108391)"><g><path d="M 107.050781 -29.398438 L 107.050781 -77.042969 C 107.050781 -93.667969 94.277344 -106.441406 78.058594 -106.441406 L 21.289062 -106.441406 C -2.027344 -106.847656 -2.433594 -70.960938 20.882812 -70.960938 L 33.046875 -70.960938 C 16.421875 -60.417969 0.203125 -51.902344 0.203125 -29.398438 C 0.203125 -26.355469 0.609375 -23.316406 1.417969 -20.679688 C 5.070312 -8.71875 16.421875 0 29.601562 0 L 77.652344 0 C 93.871094 0 107.050781 -13.382812 107.050781 -29.398438 Z M 36.496094 -71.367188 L 71.367188 -71.367188 L 71.164062 -35.886719 L 36.496094 -35.886719 Z M 36.496094 -71.367188 "/></g></g></g><g fill="#e13022" fill-opacity="1"><g transform="translate(220.598742, 149.108391)"><g><path d="M 1.214844 -130.976562 C 1.214844 -107.457031 36.898438 -107.457031 36.898438 -130.976562 C 36.898438 -154.492188 1.214844 -154.492188 1.214844 -130.976562 Z M 19.667969 0.8125 C 29.804688 0.8125 37.710938 -7.5 37.710938 -17.4375 L 37.710938 -89.207031 C 37.710938 -99.144531 29.804688 -107.253906 19.667969 -107.253906 C 9.328125 -107.253906 1.824219 -98.332031 1.824219 -88.195312 L 1.824219 -17.4375 C 1.824219 -7.5 9.933594 0.8125 19.667969 0.8125 Z M 19.667969 0.8125 "/></g></g></g><g fill="#e13022" fill-opacity="1"><g transform="translate(266.414836, 149.108391)"><g><path d="M 57.582031 -106.644531 C 45.210938 -106.644531 39.128906 -94.480469 37.101562 -83.734375 C 36.699219 -82.113281 34.667969 -81.707031 34.667969 -83.734375 L 34.667969 -89.410156 C 34.667969 -99.144531 27.980469 -107.253906 18.042969 -107.253906 C 8.3125 -107.253906 0.203125 -99.144531 0.203125 -89.410156 L 0.203125 -17.234375 C 0.203125 -7.5 8.3125 0.609375 18.042969 0.609375 C 27.980469 0.609375 36.089844 -7.5 36.089844 -17.234375 L 36.089844 -71.164062 L 61.433594 -71.164062 C 72.582031 -71.164062 78.867188 -79.882812 78.867188 -88.804688 C 79.273438 -98.128906 72.582031 -106.847656 61.433594 -106.644531 Z M 57.582031 -106.644531 "/></g></g></g><g fill="#e13022" fill-opacity="1"><g transform="translate(349.937969, 149.108391)"><g><path d="M 0 -76.4375 L 0 -29.804688 C 0 -13.382812 13.382812 0 30.414062 0 L 73.394531 0 C 82.921875 0 91.4375 -7.5 91.4375 -17.4375 C 91.4375 -27.371094 82.921875 -35.480469 73.394531 -35.480469 L 35.683594 -35.480469 L 35.683594 -71.164062 L 73.394531 -71.367188 C 83.328125 -71.367188 91.4375 -79.476562 91.4375 -89.207031 C 91.4375 -98.738281 83.328125 -106.847656 73.800781 -106.847656 L 30.414062 -106.847656 C 13.988281 -106.847656 0 -93.464844 0 -76.4375 Z M 0 -76.4375 "/></g></g></g><g fill="#e13022" fill-opacity="1"><g transform="translate(447.043774, 149.108391)"><g><path d="M 103.402344 -77.042969 C 103.402344 -93.464844 90.019531 -107.253906 72.988281 -107.050781 C 52.308594 -106.847656 41.96875 -98.128906 36.089844 -76.4375 L 36.089844 -125.703125 C 36.089844 -135.234375 28.183594 -143.546875 18.246094 -143.546875 C 8.109375 -143.546875 0 -135.234375 0 -125.703125 L 0 -17.234375 C 0 -7.703125 8.109375 0.609375 18.246094 0.609375 C 28.183594 0.609375 36.089844 -7.703125 36.089844 -17.234375 L 36.089844 -71.367188 L 67.71875 -71.367188 L 67.71875 -17.234375 C 67.71875 -7.703125 75.421875 0.609375 85.558594 0.609375 C 95.292969 0.609375 103.402344 -7.703125 103.402344 -17.234375 Z M 103.402344 -77.042969 "/></g></g></g><g fill="#e13022" fill-opacity="1"><g transform="translate(558.543084, 149.108391)"><g><path d="M 107.050781 -29.398438 L 107.050781 -77.042969 C 107.050781 -93.667969 94.277344 -106.441406 78.058594 -106.441406 L 21.289062 -106.441406 C -2.027344 -106.847656 -2.433594 -70.960938 20.882812 -70.960938 L 33.046875 -70.960938 C 16.421875 -60.417969 0.203125 -51.902344 0.203125 -29.398438 C 0.203125 -26.355469 0.609375 -23.316406 1.417969 -20.679688 C 5.070312 -8.71875 16.421875 0 29.601562 0 L 77.652344 0 C 93.871094 0 107.050781 -13.382812 107.050781 -29.398438 Z M 36.496094 -71.367188 L 71.367188 -71.367188 L 71.164062 -35.886719 L 36.496094 -35.886719 Z M 36.496094 -71.367188 "/></g></g></g><g fill="#e13022" fill-opacity="1"><g transform="translate(673.691539, 149.108391)"><g><path d="M 0 -126.3125 L 0 -30.007812 C 0 -13.382812 13.382812 0 29.804688 0 L 45.617188 0 C 69.339844 0 69.746094 -35.480469 45.820312 -35.480469 L 35.480469 -35.480469 L 35.480469 -71.164062 L 38.925781 -71.164062 C 63.664062 -71.164062 63.664062 -106.847656 38.925781 -106.847656 L 35.480469 -106.847656 L 35.480469 -126.3125 C 35.480469 -136.042969 27.371094 -144.152344 17.640625 -144.152344 C 8.109375 -144.152344 0 -136.042969 0 -126.3125 Z M 0 -126.3125 "/></g></g></g></svg>