<svg xmlns="http://www.w3.org/2000/svg" xmlns:xlink="http://www.w3.org/1999/xlink" width="600" zoomAndPan="magnify" viewBox="0 0 450 449.999984" height="600" preserveAspectRatio="xMidYMid meet" version="1.0"><defs><g/></defs><g fill="#e13022" fill-opacity="1"><g transform="translate(92.113551, 441.378551)"><g><path d="M 108.683594 -326.046875 L 229.785156 -326.046875 C 258.972656 -326.046875 284.4375 -351.507812 284.4375 -381.316406 C 284.4375 -410.507812 260.214844 -434.726562 229.785156 -434.726562 L 91.292969 -434.726562 C 40.988281 -434.726562 0 -393.738281 0 -342.8125 L 0 -50.304688 C 0 20.496094 108.683594 20.496094 108.683594 -50.304688 C 108.683594 -86.945312 108.683594 -108.683594 108.683594 -145.324219 L 204.941406 -145.324219 C 235.375 -145.324219 260.214844 -170.785156 260.214844 -199.972656 C 260.214844 -229.785156 235.375 -254.003906 206.183594 -254.003906 C 165.195312 -254.003906 149.671875 -254.003906 108.683594 -254.003906 Z M 108.683594 -326.046875 "/></g></g></g></svg>